<?xml version="1.0" standalone="no"?>
<!DOCTYPE svg PUBLIC "-//W3C//DTD SVG 20010904//EN"
 "http://www.w3.org/TR/2001/REC-SVG-20010904/DTD/svg10.dtd">
<svg version="1.0" xmlns="http://www.w3.org/2000/svg"
 width="300.000000pt" height="225.000000pt" viewBox="0 0 300.000000 225.000000"
 preserveAspectRatio="xMidYMid meet">
<metadata>
Created by potrace 1.10, written by Peter Selinger 2001-2011
</metadata>
<g transform="translate(0.000000,225.000000) scale(0.100000,-0.100000)"
fill="#000000" stroke="none">
<path d="M1262 1385 c-17 -14 -34 -38 -39 -53 -5 -15 -8 -114 -8 -220 l1 -192
35 -36 c30 -31 39 -35 79 -33 37 2 52 9 83 40 41 41 46 67 19 92 -25 22 -32
21 -64 -8 -52 -48 -55 -42 -56 150 -1 107 2 177 9 180 5 4 63 -45 128 -109 65
-64 126 -116 134 -116 22 0 47 28 47 52 0 14 -41 63 -112 136 -146 147 -194
169 -256 117z m144 -47 c34 -31 42 -44 32 -51 -10 -7 -9 -8 3 -4 20 7 175
-146 165 -162 -14 -22 -34 -8 -146 104 -118 118 -148 135 -170 96 -6 -12 -10
-92 -10 -191 0 -99 4 -179 10 -191 15 -27 49 -24 81 7 17 16 34 24 43 21 23
-9 20 -19 -19 -57 -46 -45 -96 -47 -131 -6 -24 27 -24 31 -24 227 0 199 0 200
25 224 39 40 86 34 141 -17z"/>
<path d="M1610 1396 c-29 -16 -70 -68 -70 -89 0 -8 9 -22 19 -31 22 -20 50
-15 76 14 41 45 45 31 45 -161 0 -152 -2 -180 -14 -177 -8 2 -66 53 -129 115
-118 115 -137 125 -168 87 -22 -27 2 -61 125 -182 121 -118 125 -122 168 -122
24 0 54 7 66 16 47 32 52 60 52 267 0 190 0 194 -25 227 -14 19 -31 37 -37 42
-20 12 -80 9 -108 -6z m119 -42 c20 -25 21 -40 21 -225 0 -194 0 -198 -24
-225 -18 -21 -32 -28 -60 -28 -34 0 -47 11 -161 124 -69 69 -125 128 -125 133
0 4 7 10 16 14 11 4 51 -29 133 -111 115 -114 142 -131 169 -104 17 17 17 379
0 396 -19 19 -53 14 -78 -13 -26 -28 -45 -32 -53 -11 -4 9 8 27 29 45 46 41
103 43 133 5z"/>
<path d="M1720 1189 c0 -5 5 -7 10 -4 6 3 10 8 10 11 0 2 -4 4 -10 4 -5 0 -10
-5 -10 -11z"/>
</g>
</svg>
